<svg xmlns="http://www.w3.org/2000/svg" version="1.1" xmlns:xlink="http://www.w3.org/1999/xlink" xmlns:svgjs="http://svgjs.dev/svgjs" width="2000" height="2250" viewBox="0 0 2000 2250"><g transform="matrix(1,0,0,1,0.00014687500004129106,0)"><svg viewBox="0 0 320 360" data-background-color="#b4b8db" preserveAspectRatio="xMidYMid meet" height="2250" width="2000" xmlns="http://www.w3.org/2000/svg" xmlns:xlink="http://www.w3.org/1999/xlink"><g id="tight-bounds" transform="matrix(1,0,0,1,0.000023499999997511622,0)"><svg viewBox="0 0 320 360" height="360" width="320"><g><svg></svg></g><g><svg viewBox="0 0 320 360" height="360" width="320"><g><path transform="translate(-74.99272,-51.79039) scale(4.65793,4.65793)" d="M20.6 59.9l0.8 1-0.4-1.3c-0.1-0.6-0.8 0.1-0.4 0.3M21.5 59.3c0.3 0.5 0.6 1 0.6 1.5 0 0.7 0.6 1 1.1 1.2-0.7-0.8-1.1-3-1.7-2.7M59.9 16.9c1.7 0 3.3-0.2 5.1 0.2 4.4 1.1 8.1 3.3 10.6 6.4l7 11.2c0.3 2.8 0.9 5.9 0.8 9.3 0.7 0 0.6-1 1.4-1.2-0.8 2-1.2 4.5-1.4 7.4-0.5-1.6 0-4 0.1-5.3-0.7 1.1-1.1 0.3-1.1-0.2 0.1-0.8-0.3-0.7-0.6-1-1.1-1-1.8-2.1-2.6-3.8 0.5-1.3 0.6-3.2-1-4.2-0.5-0.3-1.1-0.8-1.4-1.6-0.4-1.1-1.1-2.4-0.9-4.1 0.1-0.5-1.5 1.1-2.4 0.4-3.9-2.7-7.8-5.8-12.5-8.4-2.5 0-4.3-0.9-5.2-2-0.8-1-0.2-2.3 1-2.4 0.7 0 1.5-0.2 2.1 0.2 0.1-0.4 0.5-0.9 1-0.9M50 14.6l0.2 0.1c1 0.2 1.5 1.6 2.6 1.1 0 0.7 0.1 1.4-0.1 1.9-0.3 0.8-1.2 0.8-1.9 0.8-6.7-0.4-10.6 2.4-14.7 4.8-1.1 0.7-2.3 1.2-3.2 2.1-4.3 4-9 7.7-10.1 15.1l-0.9 8.2c-0.1 0.9-1.1 1.8-0.9 2.9l0.7 4.9c-0.7-0.7-1.1 0.2-0.9 0.6 0.1 0.3 0.5 1.3 1.1 0.4 0.8 1.5 1.6 4.4 2.7 5.7 3.4 4 7.8 7.6 11.4 11.2 0.9-0.2 1.6-0.2 1.8-0.8 0.3 0.6-0.3 1.2-0.8 1.3 1.6 1 3.4 1.9 5.8 2.1 3.1 0.2 6 0.7 8.7 1.4 1.4-0.4 2.8-0.6 4.3-0.7 0.5 0 0.8-0.8 1.4-1l0.1-1c0.6 0.9 0.5-0.3 0.1-0.9 0.7 0.6 0.9 1.1 1.2 1.5 0-0.3 0.8-1.4 0.8-0.1l0.2-1.3c0.3-0.2 0.4 1.1 0.7 0.2 0.3-0.9 0.9-0.2 1.5-0.5-0.2 0.4-0.1 1.2 0.6 0.7l0.8-0.7c0.5 1.2 1.3 0.7 1.7 0.5 4.4-2.8 8.8-6.1 13-9.4l-0.1 1.3 0.5-1.6c0.5 0.5 0.9 0.1 1.1-0.2 0.6-1 1.4-2 2.7-2.9-1.6 4.3-3.5 7.7-5.9 10.5l-1 1.2c0 0.7-0.2 1.6-1 1.7-0.4 0.1-1.2-0.2-1.8 0.4-0.3 0.4 0.7 1.2-0.1 0.6-0.7-0.5-1.4 0-2.2 0.2-0.6 0.2 0.4 0.8 0.6 1.2 0.2 0.4 0.4 0.8 0.3 1.3l-1.1-1.2c-1.3 0.7-2.1 2-3.2 3-0.5 0.4-0.3 1.1-0.3 1.7-0.7 0-1.5-0.2-1.9 0.2-0.3 0.4-0.2 1-0.2 1.6-1-0.1-1.1-1.6-2-1.3-0.9 0.2-1.9 0.3-2.7 0.8 0.6 1.2-1 0.5-0.8 0.7-1.5-0.9-2.8-1.6-4.4-1-3.4-1.1-7.6-0.6-10.7-0.2 0-0.5 0.1-1-0.1-1.1-0.2 0.5-0.8 0.3-0.7 0.3-1.9-1.3-3.8-2.1-5.8-3.2-1.8 0.2-3.5-0.7-4-1.2-1.4-1.3-3-0.6-4.3-0.9-2.8-0.7-3.8-3.6-4.1-5.6-0.2-1-1-1.4-1.3-1.3-1.3-4.2-3.3-8-4.9-11.9-0.4-1-0.3-2-0.3-3.1 0.5 0.2 1 0.1 0.9-0.6-0.5-3.3-1.7-5.8-3-8.2 0.7-3.4 0.8-7.4 2.4-10.4 1.4-2.7 4-4.1 5.8-6.4 0.6-0.8 0.6-1.9 1.2-2.6 2-2 4-4.1 6.2-5.9 1-0.8 2.2 0 3.7-0.3 0.5-1.8 2.5-3.4 4.4-2.9 0.8 0.2 2.4-1.9 2.9-2.1 0.8-0.3 0.4 0.8 0.4 1.5 1.9-1.5 4.5-2.3 6.9-3.2" fill="#355d17" fill-rule="nonzero" stroke="none" stroke-width="1" stroke-linecap="butt" stroke-linejoin="miter" stroke-miterlimit="10" stroke-dasharray="" stroke-dashoffset="0" font-family="none" font-weight="none" font-size="none" text-anchor="none" style="mix-blend-mode: normal" data-fill-palette-color="tertiary"></path></g><g transform="matrix(1,0,0,1,64,123.88071105643621)"><svg viewBox="0 0 192 112.23857788712756" height="112.23857788712756" width="192"><g><svg viewBox="0 0 221.62199457850414 129.55488281249998" height="112.23857788712756" width="192"><g><svg viewBox="0 0 221.62199457850414 129.55488281249998" height="129.55488281249998" width="221.62199457850414"><g id="textblocktransform"><svg viewBox="0 0 221.62199457850414 129.55488281249998" height="129.55488281249998" width="221.62199457850414" id="textblock"><g><svg viewBox="0 0 221.62199457850414 129.55488281249998" height="129.55488281249998" width="221.62199457850414"><g><svg viewBox="0 0 221.62199457850414 129.55488281249998" height="129.55488281249998" width="221.62199457850414"><g><svg viewBox="0 0 221.62199457850414 127.59138077960725" height="127.59138077960725" width="221.62199457850414"><g transform="matrix(1,0,0,1,12.708085505397918,0)"><svg width="196.2058235677083" viewBox="1.27 -37.5 120.74000000000001 39.55" height="64.26474609374999" data-palette-color="#355d17"><path d="M22.75-7.67L22.75-7.67Q22.75-6.74 22.27-5.86L22.27-5.86Q21.78-5.03 19.97-3.91 18.16-2.78 15.97-1.78 13.77-0.78 11.72-0.07 9.67 0.63 8.69 0.63L8.69 0.63Q8.01 0.63 7.08 0.32 6.15 0 5.22-0.49 4.3-0.98 3.54-1.61 2.78-2.25 2.44-2.83L2.44-2.83Q2.25-3.17 2.08-4.2 1.9-5.22 1.78-6.59 1.66-7.96 1.56-9.5 1.46-11.04 1.39-12.43 1.32-13.82 1.29-14.89 1.27-15.97 1.27-16.46L1.27-16.46Q1.27-18.26 1.39-20.61 1.51-22.95 1.86-25.32 2.2-27.69 2.86-29.86 3.52-32.03 4.64-33.54L4.64-33.54Q4.98-33.98 6.01-34.47 7.03-34.96 8.42-35.4 9.81-35.84 11.43-36.23 13.04-36.62 14.53-36.89 16.02-37.16 17.24-37.33 18.46-37.5 19.09-37.5L19.09-37.5Q19.82-37.5 20.48-37.18 21.14-36.87 21.61-36.33 22.07-35.79 22.34-35.13 22.61-34.47 22.61-33.74L22.61-33.74Q22.61-33.11 22.44-32.67 22.27-32.23 21.92-31.69L21.92-31.69Q21.44-31.05 19.87-30.18 18.31-29.3 16.48-28.44 14.65-27.59 12.96-26.9 11.28-26.22 10.6-25.93L10.6-25.93Q10.4-24.8 10.18-23.66 9.96-22.51 9.86-21.34L9.86-21.34Q11.38-22.12 13.28-22.8 15.19-23.49 16.89-23.49L16.89-23.49Q20.36-23.49 20.36-20.07L20.36-20.07Q20.36-19.24 20.04-18.6 19.73-17.97 19.21-17.48 18.7-16.99 18.04-16.63 17.38-16.26 16.75-15.92L16.75-15.92Q15.19-15.09 13.48-14.48 11.77-13.87 10.06-13.28L10.06-13.28Q9.96-12.89 9.86-12.43 9.77-11.96 9.77-11.52L9.77-11.52Q9.77-10.84 9.86-10.16 9.96-9.47 10.06-8.79L10.06-8.79Q10.64-8.98 11.94-9.42 13.23-9.86 14.65-10.3 16.06-10.74 17.38-11.06 18.7-11.38 19.34-11.38L19.34-11.38Q20.07-11.38 20.7-11.06 21.34-10.74 21.78-10.23 22.22-9.72 22.49-9.03 22.75-8.35 22.75-7.67ZM53.37-20.95L53.37-20.95Q53.37-19.87 53.27-17.9 53.17-15.92 52.9-13.55 52.63-11.18 52.15-8.72 51.66-6.25 50.88-4.25 50.1-2.25 48.97-0.95 47.85 0.34 46.29 0.34L46.29 0.34Q44.82 0.34 43.6-0.51 42.38-1.37 41.4-2.61 40.43-3.86 39.69-5.27 38.96-6.69 38.47-7.86L38.47-7.86Q37.45-10.35 36.42-12.77 35.4-15.19 34.47-17.68L34.47-17.68 34.47-16.31Q34.47-14.21 34.45-12.13 34.42-10.06 34.13-8.01L34.13-8.01Q34.03-7.18 33.91-6.08 33.79-4.98 33.54-3.91 33.3-2.83 32.83-1.9 32.37-0.98 31.59-0.54L31.59-0.54Q31.15-0.29 30.78-0.24 30.42-0.2 29.98-0.1L29.98-0.1 29.83-0.1Q28.71-0.1 27.93-0.85 27.15-1.61 26.61-2.81 26.07-4 25.75-5.49 25.44-6.98 25.27-8.42 25.1-9.86 25.05-11.08 25-12.3 25-13.04L25-13.04Q25-14.16 25.1-16.33 25.19-18.51 25.51-21.14 25.83-23.78 26.34-26.56 26.85-29.35 27.68-31.62 28.51-33.89 29.68-35.33 30.86-36.77 32.42-36.77L32.42-36.77Q33.93-36.77 35.13-35.6 36.33-34.42 37.25-32.81 38.18-31.2 38.82-29.44 39.45-27.69 39.89-26.51L39.89-26.51Q40.72-24.22 41.5-21.95 42.28-19.68 43.02-17.33L43.02-17.33Q43.06-17.24 43.21-16.8 43.36-16.36 43.55-15.82L43.55-15.82Q43.75-15.23 44.04-14.5L44.04-14.5Q44.04-15.14 44.02-15.41 43.99-15.67 43.99-15.89 43.99-16.11 43.99-16.46 43.99-16.8 43.99-17.53L43.99-17.53Q43.94-19.14 43.92-20.75 43.89-22.36 43.89-23.93L43.89-23.93Q43.89-24.61 43.92-25.83 43.94-27.05 44.06-28.44 44.19-29.83 44.43-31.25 44.68-32.67 45.14-33.81 45.6-34.96 46.31-35.69 47.02-36.43 48.04-36.43L48.04-36.43Q49.27-36.43 50.14-35.5 51.02-34.57 51.61-33.13 52.19-31.69 52.54-29.91 52.88-28.13 53.07-26.42 53.27-24.71 53.32-23.24 53.37-21.78 53.37-20.95ZM77.73-33.35L77.73-33.35Q77.73-32.13 76.78-31.13 75.83-30.13 74.48-29.37 73.14-28.61 71.72-28.13 70.31-27.64 69.38-27.44L69.38-27.44Q68.99-23.68 68.77-19.95 68.55-16.21 68.55-12.45L68.55-12.45Q68.55-10.45 68.65-8.5 68.75-6.54 68.75-4.59L68.75-4.59Q68.75-3.71 68.57-2.66 68.4-1.61 67.99-0.68 67.57 0.24 66.84 0.88 66.11 1.51 65.03 1.51L65.03 1.51Q63.76 1.51 63.01 0.81 62.25 0.1 61.84-0.93 61.42-1.95 61.27-3.1 61.13-4.25 61.13-5.18L61.13-5.18Q61.03-8.11 60.98-11.06 60.93-14.01 60.93-16.99L60.93-16.99Q60.93-19.48 60.96-21.88 60.98-24.27 60.98-26.76L60.98-26.76Q60.3-26.66 59.59-26.61 58.88-26.56 58.15-26.56L58.15-26.56Q57.56-26.56 56.61-26.68 55.66-26.81 54.78-27.12 53.9-27.44 53.27-28 52.63-28.56 52.63-29.44L52.63-29.44Q52.63-30.91 53.78-32.01 54.93-33.11 56.71-33.91 58.49-34.72 60.66-35.28 62.84-35.84 64.96-36.16 67.08-36.47 68.87-36.62 70.65-36.77 71.63-36.77L71.63-36.77Q72.55-36.77 73.6-36.69 74.65-36.62 75.58-36.28 76.51-35.94 77.12-35.25 77.73-34.57 77.73-33.35ZM99.02-25.68L99.02-25.68Q99.02-22.31 97.45-19.63 95.89-16.94 93.3-14.89L93.3-14.89Q94.08-13.72 94.91-12.16 95.74-10.6 96.4-8.86 97.06-7.13 97.48-5.4 97.89-3.66 97.89-2.2L97.89-2.2Q97.89-0.63 97.14 0.61 96.38 1.86 94.57 1.86L94.57 1.86Q93.06 1.86 91.96 0.39 90.86-1.07 90.01-3.1 89.15-5.13 88.44-7.23 87.74-9.33 87.1-10.6L87.1-10.6Q86.22-10.3 85.39-9.94 84.56-9.57 83.68-9.23L83.68-9.23Q83.64-8.15 83.51-6.27 83.39-4.39 82.98-2.54 82.56-0.68 81.73 0.68 80.9 2.05 79.44 2.05L79.44 2.05Q77.82 2.05 76.95 0.73 76.07-0.59 75.7-2.39 75.33-4.2 75.29-6.08 75.24-7.96 75.24-9.03L75.24-9.03Q75.24-11.33 75.33-13.55 75.43-15.77 75.43-18.07L75.43-18.07Q75.43-20.17 75.36-22.27 75.29-24.37 75.29-26.51L75.29-26.51Q75.29-27 75.29-27.76 75.29-28.52 75.36-29.32 75.43-30.13 75.53-30.86 75.63-31.59 75.87-32.03L75.87-32.03Q76.36-33.06 78.09-33.98 79.83-34.91 81.9-35.62 83.98-36.33 85.95-36.74 87.93-37.16 88.91-37.16L88.91-37.16Q91.4-37.16 93.3-36.23 95.21-35.3 96.48-33.72 97.75-32.13 98.38-30.05 99.02-27.98 99.02-25.68ZM89.98-25L89.98-25Q89.98-26.27 89.4-26.93 88.81-27.59 87.49-27.59L87.49-27.59Q86.52-27.59 85.51-27.25 84.51-26.9 83.68-26.46L83.68-26.46Q83.88-22.61 83.83-18.8L83.83-18.8Q84.86-19.14 85.93-19.68 87-20.21 87.91-21 88.81-21.78 89.4-22.75 89.98-23.73 89.98-25ZM122.01-7.67L122.01-7.67Q122.01-6.74 121.52-5.86L121.52-5.86Q121.03-5.03 119.23-3.91 117.42-2.78 115.22-1.78 113.03-0.78 110.98-0.07 108.93 0.63 107.95 0.63L107.95 0.63Q107.27 0.63 106.34 0.32 105.41 0 104.48-0.49 103.55-0.98 102.8-1.61 102.04-2.25 101.7-2.83L101.7-2.83Q101.5-3.17 101.33-4.2 101.16-5.22 101.04-6.59 100.92-7.96 100.82-9.5 100.72-11.04 100.65-12.43 100.58-13.82 100.55-14.89 100.53-15.97 100.53-16.46L100.53-16.46Q100.53-18.26 100.65-20.61 100.77-22.95 101.11-25.32 101.45-27.69 102.11-29.86 102.77-32.03 103.9-33.54L103.9-33.54Q104.24-33.98 105.26-34.47 106.29-34.96 107.68-35.4 109.07-35.84 110.68-36.23 112.29-36.62 113.78-36.89 115.27-37.16 116.49-37.33 117.71-37.5 118.35-37.5L118.35-37.5Q119.08-37.5 119.74-37.18 120.4-36.87 120.86-36.33 121.33-35.79 121.6-35.13 121.87-34.47 121.87-33.74L121.87-33.74Q121.87-33.11 121.69-32.67 121.52-32.23 121.18-31.69L121.18-31.69Q120.69-31.05 119.13-30.18 117.57-29.3 115.74-28.44 113.91-27.59 112.22-26.9 110.54-26.22 109.85-25.93L109.85-25.93Q109.66-24.8 109.44-23.66 109.22-22.51 109.12-21.34L109.12-21.34Q110.63-22.12 112.54-22.8 114.44-23.49 116.15-23.49L116.15-23.49Q119.62-23.49 119.62-20.07L119.62-20.07Q119.62-19.24 119.3-18.6 118.98-17.97 118.47-17.48 117.96-16.99 117.3-16.63 116.64-16.26 116.01-15.92L116.01-15.92Q114.44-15.09 112.73-14.48 111.03-13.87 109.32-13.28L109.32-13.28Q109.22-12.89 109.12-12.43 109.02-11.96 109.02-11.52L109.02-11.52Q109.02-10.84 109.12-10.16 109.22-9.47 109.32-8.79L109.32-8.79Q109.9-8.98 111.2-9.42 112.49-9.86 113.91-10.3 115.32-10.74 116.64-11.06 117.96-11.38 118.59-11.38L118.59-11.38Q119.33-11.38 119.96-11.06 120.6-10.74 121.03-10.23 121.47-9.72 121.74-9.03 122.01-8.35 122.01-7.67Z" opacity="1" transform="matrix(1,0,0,1,0,0)" fill="#355d17" class="undefined-yy-0"></path></svg></g><g><svg><g></g><g></g></svg></g><g><svg><g></g><g><svg></svg></g></svg></g><g transform="matrix(1,0,0,1,0,64.85068359374999)" id="text-0"><svg viewBox="0 0 221.62199457850414 64.70419921874999" height="64.70419921874999" width="221.62199457850414"><g><svg xmlns="http://www.w3.org/2000/svg" xmlns:xlink="http://www.w3.org/1999/xlink" version="1.0" x="0" y="0" viewBox="7.357471499999999 5.498693 86.31489189999999 89.501307" enable-background="new 0 0 100 100" xml:space="preserve" height="64.70419921874999" width="62.40060785975416" class="icon-cg-0" data-fill-palette-color="accent" id="cg-0"><path d="M66.485 57.735h15.168c1.352 0 1.959-1.155 0.937-1.767-9.858-5.908-17.389-13.474-22.67-19.96H74.609c1.321 0 1.963-1.126 0.983-1.738C58.69 23.712 50.515 5.499 50.515 5.499v0c-0.004 0.008-8.179 18.215-25.076 28.771-0.98 0.612-0.339 1.739 0.982 1.738h14.69c-5.283 6.486-12.814 14.052-22.671 19.96-1.021 0.612-0.414 1.766 0.938 1.767h15.168c-6.827 7.472-15.862 15.439-27.189 21.507h40.857V95h2.301 2.302V79.242h40.855C82.347 73.173 73.312 65.207 66.485 57.735z" fill="#355d17" data-fill-palette-color="accent"></path></svg></g><g transform="matrix(1,0,0,1,77.67687739100415,0)"><svg width="143.9451171875" viewBox="1.51 -38.09 88.96 39.99" height="64.70419921874999" data-palette-color="#355d17"><path d="M24.12-26.17L24.12-26.17Q24.12-23.54 22.97-21 21.83-18.46 19.92-16.43 18.02-14.4 15.58-13.11 13.13-11.82 10.55-11.67L10.55-11.67Q10.5-10.79 10.47-9.45 10.45-8.11 10.3-6.64 10.16-5.18 9.89-3.71 9.62-2.25 9.11-1.07 8.59 0.1 7.79 0.83 6.98 1.56 5.81 1.56L5.81 1.56Q4.44 1.56 3.64 0.66 2.83-0.24 2.42-1.51 2-2.78 1.86-4.17 1.71-5.57 1.66-6.54L1.66-6.54Q1.56-7.96 1.54-9.33 1.51-10.69 1.51-12.11L1.51-12.11Q1.51-12.74 1.51-14.48 1.51-16.21 1.54-18.43 1.56-20.65 1.61-23.07 1.66-25.49 1.76-27.56 1.86-29.64 1.98-31.1 2.1-32.57 2.29-32.81L2.29-32.81Q2.34-32.86 2.59-33.03 2.83-33.2 3.13-33.37 3.42-33.54 3.66-33.69 3.91-33.84 4-33.89L4-33.89Q6.25-35.16 8.94-36.08 11.62-37.01 14.26-37.01L14.26-37.01Q16.5-37.01 18.33-36.11 20.17-35.21 21.46-33.72 22.75-32.23 23.44-30.25 24.12-28.27 24.12-26.17ZM15.67-25.05L15.67-25.05Q15.67-26.03 15.21-26.76 14.75-27.49 13.67-27.49L13.67-27.49Q12.74-27.49 11.82-27.12 10.89-26.76 10.11-26.37L10.11-26.37Q10.25-24.66 10.38-23.05 10.5-21.44 10.4-19.73L10.4-19.73Q11.18-20.12 12.11-20.63 13.04-21.14 13.82-21.78 14.6-22.41 15.14-23.22 15.67-24.02 15.67-25.05ZM42.19-33.15L42.19-33.15Q42.19-32.23 41.77-31.49 41.35-30.76 40.67-30.25 39.99-29.74 39.16-29.39 38.33-29.05 37.55-28.91L37.55-28.91Q37.45-23.39 37.13-18.26 36.81-13.13 36.13-7.67L36.13-7.67 36.42-7.67Q37.2-7.67 37.96-7.5 38.72-7.32 39.33-6.91 39.94-6.49 40.31-5.88 40.67-5.27 40.67-4.39L40.67-4.39Q40.67-3.27 39.96-2.44 39.26-1.61 38.11-1.03 36.96-0.44 35.54-0.05 34.13 0.34 32.71 0.56 31.3 0.78 30.03 0.88 28.76 0.98 27.98 0.98L27.98 0.98Q27.39 0.98 26.54 0.93 25.68 0.88 24.92 0.63 24.17 0.39 23.63-0.1 23.09-0.59 23.09-1.42L23.09-1.42Q23.09-2.44 23.51-3.25 23.92-4.05 24.61-4.69 25.29-5.32 26.14-5.71 27-6.1 27.88-6.3L27.88-6.3Q28.22-8.98 28.51-11.65 28.81-14.31 28.9-17.04L28.9-17.04Q29-19.82 29.1-22.53 29.2-25.24 29.29-27.98L29.29-27.98Q28.95-27.93 28.66-27.91 28.37-27.88 28.12-27.88L28.12-27.88Q27.44-27.88 26.66-28.03 25.88-28.17 25.19-28.54 24.51-28.91 24.05-29.44 23.58-29.98 23.58-30.81L23.58-30.81Q23.58-32.47 24.97-33.54 26.36-34.62 28.29-35.21 30.22-35.79 32.22-36.01 34.23-36.23 35.45-36.23L35.45-36.23Q36.13-36.23 37.25-36.13 38.38-36.04 39.48-35.69 40.57-35.35 41.38-34.77 42.19-34.18 42.19-33.15ZM71.28-20.95L71.28-20.95Q71.28-19.87 71.19-17.9 71.09-15.92 70.82-13.55 70.55-11.18 70.06-8.72 69.58-6.25 68.79-4.25 68.01-2.25 66.89-0.95 65.77 0.34 64.2 0.34L64.2 0.34Q62.74 0.34 61.52-0.51 60.3-1.37 59.32-2.61 58.34-3.86 57.61-5.27 56.88-6.69 56.39-7.86L56.39-7.86Q55.37-10.35 54.34-12.77 53.32-15.19 52.39-17.68L52.39-17.68 52.39-16.31Q52.39-14.21 52.36-12.13 52.34-10.06 52.05-8.01L52.05-8.01Q51.95-7.18 51.83-6.08 51.7-4.98 51.46-3.91 51.22-2.83 50.75-1.9 50.29-0.98 49.51-0.54L49.51-0.54Q49.07-0.29 48.7-0.24 48.33-0.2 47.9-0.1L47.9-0.1 47.75-0.1Q46.63-0.1 45.84-0.85 45.06-1.61 44.53-2.81 43.99-4 43.67-5.49 43.35-6.98 43.18-8.42 43.01-9.86 42.96-11.08 42.91-12.3 42.91-13.04L42.91-13.04Q42.91-14.16 43.01-16.33 43.11-18.51 43.43-21.14 43.75-23.78 44.26-26.56 44.77-29.35 45.6-31.62 46.43-33.89 47.6-35.33 48.77-36.77 50.34-36.77L50.34-36.77Q51.85-36.77 53.05-35.6 54.24-34.42 55.17-32.81 56.1-31.2 56.73-29.44 57.37-27.69 57.81-26.51L57.81-26.51Q58.64-24.22 59.42-21.95 60.2-19.68 60.93-17.33L60.93-17.33Q60.98-17.24 61.13-16.8 61.27-16.36 61.47-15.82L61.47-15.82Q61.66-15.23 61.96-14.5L61.96-14.5Q61.96-15.14 61.93-15.41 61.91-15.67 61.91-15.89 61.91-16.11 61.91-16.46 61.91-16.8 61.91-17.53L61.91-17.53Q61.86-19.14 61.84-20.75 61.81-22.36 61.81-23.93L61.81-23.93Q61.81-24.61 61.84-25.83 61.86-27.05 61.98-28.44 62.1-29.83 62.35-31.25 62.59-32.67 63.06-33.81 63.52-34.96 64.23-35.69 64.94-36.43 65.96-36.43L65.96-36.43Q67.18-36.43 68.06-35.5 68.94-34.57 69.53-33.13 70.11-31.69 70.45-29.91 70.8-28.13 70.99-26.42 71.19-24.71 71.24-23.24 71.28-21.78 71.28-20.95ZM90.47-34.28L90.47-34.28Q90.47-33.15 89.76-32.32 89.06-31.49 88.08-30.96L88.08-30.96Q87.2-30.42 86.27-29.81 85.34-29.2 84.56-28.44 83.78-27.69 83.29-26.76 82.81-25.83 82.81-24.66L82.81-24.66Q82.81-23.63 83.29-22.8 83.78-21.97 84.49-21.17 85.2-20.36 86.05-19.51 86.91-18.65 87.61-17.6 88.32-16.55 88.81-15.23 89.3-13.92 89.3-12.16L89.3-12.16Q89.3-10.94 88.79-9.4 88.27-7.86 87.39-6.3 86.52-4.74 85.32-3.27 84.12-1.81 82.78-0.66 81.44 0.49 79.97 1.2 78.51 1.9 77.14 1.9L77.14 1.9Q75.63 1.9 74.46 1.07 73.28 0.24 73.28-1.42L73.28-1.42Q73.28-2.54 73.82-3.49 74.36-4.44 75.14-5.32 75.92-6.2 76.87-7.03 77.82-7.86 78.61-8.69 79.39-9.52 79.92-10.42 80.46-11.33 80.46-12.35L80.46-12.35Q80.46-13.77 79.46-15.26 78.46-16.75 77.24-18.33 76.02-19.92 75.02-21.58 74.02-23.24 74.02-24.95L74.02-24.95Q74.02-27.05 75.14-29.37 76.26-31.69 78.02-33.62 79.78-35.55 81.97-36.82 84.17-38.09 86.32-38.09L86.32-38.09Q88.03-38.09 89.25-37.06 90.47-36.04 90.47-34.28Z" opacity="1" transform="matrix(1,0,0,1,0,0)" fill="#355d17" class="undefined-yy-1"></path></svg></g></svg></g></svg></g></svg></g></svg></g></svg></g></svg></g><g></g></svg></g></svg></g></svg></g><defs></defs></svg><rect width="320" height="360" fill="none" stroke="none" visibility="hidden"></rect></g></svg></g></svg>